<?xml version="1.0" encoding="utf-8"?>
<!-- Generator: Adobe Illustrator 16.0.0, SVG Export Plug-In . SVG Version: 6.00 Build 0)  -->
<!DOCTYPE svg PUBLIC "-//W3C//DTD SVG 1.1//EN" "http://www.w3.org/Graphics/SVG/1.1/DTD/svg11.dtd">
<svg version="1.1" id="Layer_1" xmlns="http://www.w3.org/2000/svg" xmlns:xlink="http://www.w3.org/1999/xlink" x="0px" y="0px"
	 width="300px" height="100px" viewBox="0 0 300 100" enable-background="new 0 0 300 100" xml:space="preserve">
<text transform="matrix(1 0 0 1 91.5449 64.4707)" fill="#010101" font-family="'ArialMT'" font-size="42.1954">Instagram</text>
<path id="Icon_Instagram" fill="#010101" d="M70.15,45.271h-5.446c0.475,1.416,0.71,3.066,0.71,4.728
	c0,10.41-8.512,18.924-18.923,18.924c-10.41,0-18.924-8.515-18.924-18.924c0-1.662,0.238-3.312,0.712-4.728h-5.442v26.024
	c0,1.413,0.943,2.354,2.368,2.354h42.571c1.422,0,2.371-0.939,2.371-2.354V45.271H70.15z M70.15,28.713
	c0-1.413-0.949-2.361-2.372-2.361H60.68c-1.414,0-2.362,0.948-2.362,2.361v7.09c0,1.422,0.948,2.371,2.362,2.371h7.099
	c1.423,0,2.372-0.949,2.372-2.371V28.713z M46.493,38.174c-6.623,0-11.829,5.202-11.829,11.825c0,6.623,5.204,11.826,11.829,11.826
	c6.625,0,11.825-5.201,11.825-11.826C58.318,43.377,53.117,38.174,46.493,38.174 M70.15,80.748H22.839
	c-4.019,0-7.094-3.066-7.094-7.1V26.35c0-4.026,3.075-7.099,7.094-7.099H70.15c4.013,0,7.088,3.073,7.088,7.099v47.296
	C77.238,77.682,74.166,80.748,70.15,80.748"/>
</svg>
