<?xml version="1.0" encoding="utf-8"?>
<!-- Generator: Adobe Illustrator 16.0.0, SVG Export Plug-In . SVG Version: 6.00 Build 0)  -->
<!DOCTYPE svg PUBLIC "-//W3C//DTD SVG 1.1//EN" "http://www.w3.org/Graphics/SVG/1.1/DTD/svg11.dtd">
<svg version="1.1" id="Layer_1" xmlns="http://www.w3.org/2000/svg" xmlns:xlink="http://www.w3.org/1999/xlink" x="0px" y="0px"
	 width="300px" height="200px" viewBox="0 0 300 200" enable-background="new 0 0 300 200" xml:space="preserve">
<path fill="none" stroke="#000000" stroke-miterlimit="10" d="M69.933,42.685c12.791,1.089,13.816-20.065,4.173-25.666
	c-9.856-5.725-18.999,4.45-24.678,10.016C38.044,38.192,28.134,51.718,32.656,68.854c3.747,14.2,17.445,8.957,27.225,6.377
	c5.701-1.504,20.879-4.291,19.321,6.569c-0.573,3.994-7.651,10.721-10.604,13.267c-4.859,4.189-17.081,7.969-22.618,2.975
	c12.607-1.05,31.152,2.161,40.398-8.875c7.653-9.136,4.591-23.773,4.607-34.749c-0.001,8.101-2.018,22.781,4.729,28.984
	c3.252-2.676,3.693-8.302,4.547-12.13c1.357-6.09,3.248-11.034,6.158-16.511c1.943-3.658,1.123-4.23,5.274-4.069
	c5.614,0.217,11.218,2.287,16.85,1.834c0.607-3.756-6.261-6.409-9.219-4.814c-5.042,2.718-4.783,16.426-3.108,20.972
	c1.591,4.317,12.875,13.603,18.123,11.434c2.562-1.059,0.537-15.254,0.54-15.235c-0.614-4.09-1.343-7.685-4.147-10.713
	c-1.129,13.484,20.764,22.294,18.076,36.705c-2.107,11.297-22.731,12.735-31.209,12.108c-9.066-0.672-17.322-3.543-25.955-6.018"/>
</svg>
